<?xml version="1.0" encoding="UTF-8" ?>
<svg xmlns="http://www.w3.org/2000/svg" xmlns:xlink="http://www.w3.org/1999/xlink" viewBox="0 0 50 50" class="logo-svg-mod" version="1.1">
    <path d="M24.504 2c-4.035 0-7.953 1.063-11.188 3H19c4.418 0 10 1.625 10 7 0 2.906-1.031 6.25-4 8 .355.855.645 1.27 1 2 .656-1.406 3.125-2.953 5-3h8v7c-.117 0-.145-.02-.172-.137C38.406 24.125 35.75 22 32.5 22c-1.5 0-2.5.809-2.5 2 0 1.387.828 2.023 2 3 1.617 1.348 5.254 3.773 6.035 4.234 1.754 1.028 3.297 2.5 3.797 4.504a5.91 5.91 0 0 1 .164 1.762H42v1.105c5.79-6.855 7.484-18.945-.012-28.234C37.297 4.555 30.762 2 24.504 2zm.562 2.008c6.079.156 11.52 2.851 15.368 7.62 5.578 6.915 5.511 15.474 2.57 21.708-.832-1.477-2.172-2.777-3.957-3.824-.727-.43-4.242-2.778-5.766-4.047l-.129-.106c-1.011-.843-1.136-1.007-1.152-1.28.086-.036.25-.079.5-.079 2.48 0 4.223 1.66 4.387 2.34C37.133 27.348 37.96 28 39 28h2V17H30.95a6.946 6.946 0 0 0-.934.098C30.66 15.594 31 13.868 31 12c0-3.738-2.203-6.574-5.934-7.992zm-14.351 2.75C5.57 10.59 2.008 17.082 2.008 24c0 3.922.828 7.996 3.043 11.848 1.61 2.8 3.75 5.132 6.375 7.011a22.274 22.274 0 0 0 8.66 3.758c1.32.27 3.18.383 4.914.383-2.094-1.375-4-3.594-4-7 0-3.969 2.742-6 5-6 .871.023 2 .281 2 1.5 0 2.063-2.355 2.5-3 2.5-.563 0-1 1.355-1 2.5 0 1.773 1.36 2.934 2.926 3.66 1.164.543 2.254.797 3.355.797.977 0 1.969-.2 3.032-.582 1.035-.371 1.949-.965 2.59-1.875 1.308-1.86 1.44-3.969-.106-5.848a11.176 11.176 0 0 0-3.145-2.59c-2.215-1.226-4.082-2.457-6.066-4.05-1.957-1.575-3.832-3.219-5.328-5.25-1.086-1.473-1.918-3.067-2.274-4.88-.082-.413-.082-.413.34-.476 1.36-.203 2.485-.84 3.34-1.91C23.79 16.09 24 14.832 24 13c0-2.207-1.527-4.406-3.652-5.473a4.645 4.645 0 0 0-3.368-.34c-.546.153-.98.254-.98.813v21.563c0 1.308.832 1.636 1.98 2.234l.266.148-.02.055H9.032c.114-.121.242-.191.367-.262.817-.457 1.602-1.215 1.602-2.175V8c0-.32-.195-.91-.285-1.242zm7.531 2.258c.406 0 .8.097 1.207.296C20.93 10.056 22 11.605 22 13c0 1.664-.195 2.363-.898 3.246-.54.676-1.2 1.05-2.07 1.18-.239.035-.637.094-1.032.324V9.023c.082-.007.164-.007.246-.007zM9 11.043v18.473c-.05.086-.238.289-.602.492a3.224 3.224 0 0 0-.82.617L5.68 32.629C4.57 29.992 4.008 27.102 4.008 24c0-4.703 1.851-9.398 4.992-12.957zm9 12.176c.43.914.977 1.82 1.645 2.73 1.675 2.27 3.722 4.043 5.687 5.617.184.149.363.293.547.434-3.402.07-6.879 3.05-6.879 8 0 1.656.367 3.191 1.078 4.574a20.444 20.444 0 0 1-7.488-3.34A20.213 20.213 0 0 1 6.32 34h11.907l1.398-.055.492-1.289.617-1.625-1.523-.84-.074-.043a6.533 6.533 0 0 0-.23-.12l-.255-.137a6.898 6.898 0 0 1-.652-.36zm11.93 11.578c.562.344 1.14.68 1.75 1.016a9.052 9.052 0 0 1 2.57 2.113c.324.394 1.309 1.586.016 3.422-.352.5-.887.875-1.633 1.144-.871.313-1.64.465-2.352.465-.82 0-1.617-.195-2.511-.61C26.598 41.802 26 41.18 26 40.5c0-.223.027-.434.063-.61C27.948 39.505 30 38.103 30 35.5c0-.23-.023-.465-.07-.703z" id="surface1" />
    <metadata>
        <rdf:RDF xmlns:rdf="http://www.w3.org/1999/02/22-rdf-syntax-ns#" xmlns:rdfs="http://www.w3.org/2000/01/rdf-schema#" xmlns:dc="http://purl.org/dc/elements/1.1/">
            <rdf:Description about="https://iconscout.com/legal#licenses" dc:title="runescape" dc:description="runescape" dc:publisher="Iconscout" dc:date="2017-12-09" dc:format="image/svg+xml" dc:language="en">
                <dc:creator>
                    <rdf:Bag>
                        <rdf:li>Icons8</rdf:li>
                    </rdf:Bag>
                </dc:creator>
            </rdf:Description>
        </rdf:RDF>
    </metadata>
</svg>