<?xml version="1.0" encoding="iso-8859-1"?>
<svg version="1.1" id="Capa_1" xmlns="http://www.w3.org/2000/svg" xmlns:xlink="http://www.w3.org/1999/xlink" x="0px" y="0px"
	 viewBox="0 0 448.971 448.971" style="enable-background:new 0 0 448.971 448.971;" xml:space="preserve">
<path d="M333.727,209.671l-34.547-22.664c21.512-20.442,33.737-48.71,33.737-78.575C332.917,48.643,284.275,0,224.485,0
	c-59.79,0-108.432,48.643-108.432,108.432c0,29.864,12.225,58.135,33.736,78.576l-34.546,22.663
	c-1.848,1.212-2.681,3.494-2.048,5.612c0.633,2.117,2.581,3.568,4.791,3.568h29.569l7.195,166.336v24.69
	c-13.245,2.915-23.327,17.078-23.327,34.071v0.043c0,2.762,2.239,4.979,5,4.979c0.072,0,176.049,0,176.123,0c2.761,0,5-2.26,5-5.022
	c0-16.992-10.083-31.155-23.328-34.071v-24.69l7.196-166.336h29.569c2.21,0,4.158-1.451,4.791-3.568
	C336.407,213.165,335.575,210.883,333.727,209.671z M126.054,108.432C126.054,54.156,170.21,10,224.485,10
	c54.275,0,98.432,44.156,98.432,98.432c0,27.896-11.745,54.264-32.34,72.932l-40.916-26.843c4.865-5.747,7.807-13.172,7.807-21.274
	c0-18.185-14.796-32.981-32.982-32.981c-18.187,0-32.983,14.796-32.983,32.981c0,8.103,2.942,15.527,7.807,21.274l-40.917,26.843
	C137.799,162.696,126.054,136.328,126.054,108.432z M247.468,133.246c0,12.673-10.31,22.982-22.982,22.982
	c-12.672,0-22.983-10.309-22.983-22.982c0-12.672,10.31-22.981,22.983-22.981C237.158,110.265,247.468,120.574,247.468,133.246z
	 M307.165,438.949h-165.36c1.729-11.191,9.139-19.631,17.992-19.631h129.375C298.026,419.318,305.437,427.758,307.165,438.949z
	 M284.219,390.084v19.234H164.75v-19.234H284.219z M170.148,380.084l54.337-67.976l54.336,67.976H170.148z M230.886,304.101
	l60.084-75.164L284.8,371.548L230.886,304.101z M224.485,296.093l-61.743-77.241h123.487L224.485,296.093z M218.084,304.101
	l-53.915,67.447l-6.168-142.611L218.084,304.101z M134.724,208.852l72.463-47.539c5.033,3.113,10.958,4.916,17.298,4.916
	c6.34,0,12.265-1.803,17.298-4.916l72.463,47.539H134.724z"/>
</svg>
